<svg xmlns="http://www.w3.org/2000/svg" xmlns:svg="http://www.w3.org/2000/svg" id="svg3341" width="240" height="16" version="1.1" viewBox="0 0 240 16"><metadata id="metadata3346"/><g id="layer1" transform="translate(0,-1036.3621)"><path style="fill:#000;fill-opacity:1;stroke:#000;stroke-width:0;stroke-miterlimit:4;stroke-dasharray:none;stroke-opacity:1" id="path4159" d="m 0.763932,1043.235 -2e-8,-7.7459 6.70820402,3.873 z" transform="matrix(1.6397794,0,0,1.4200907,1.7473283,-432.1263)"/><rect style="fill:#000;fill-opacity:1;stroke:#000;stroke-width:0;stroke-miterlimit:4;stroke-dasharray:none;stroke-opacity:1" id="rect4161" width="3" height="9" x="20" y="1039.362"/><rect id="rect4163" width="3" height="9" x="25" y="1039.362" style="fill:#000;fill-opacity:1;stroke:#000;stroke-width:0;stroke-miterlimit:4;stroke-dasharray:none;stroke-opacity:1"/><rect style="fill:#000;fill-opacity:1;stroke:#000;stroke-width:0;stroke-miterlimit:4;stroke-dasharray:none;stroke-opacity:1" id="rect4165" width="8" height="9" x="36" y="1039.362"/><rect style="fill:#000;fill-opacity:1;stroke:#000;stroke-width:0;stroke-miterlimit:4;stroke-dasharray:none;stroke-opacity:1" id="rect4167" width="1" height="7" x="66" y="1040.362"/><path style="fill:#000;fill-opacity:1;stroke:#000;stroke-width:0;stroke-miterlimit:4;stroke-dasharray:none;stroke-opacity:1" id="path4169" d="m 71,1040.3621 3,-1.7321 0,3.4641 z" transform="matrix(1.3333251,0,0,2.0207177,-26.666069,-1058.4159)"/><path id="path4171" d="m 71,1040.3621 3,-1.7321 0,3.4641 z" transform="matrix(1.3333251,0,0,2.0207177,-21.666069,-1058.4159)" style="fill:#000;fill-opacity:1;stroke:#000;stroke-width:0;stroke-miterlimit:4;stroke-dasharray:none;stroke-opacity:1"/><path id="path4173" d="m 71,1040.3621 3,-1.7321 0,3.4641 z" transform="matrix(1.3333251,0,0,2.0207177,-11.666069,-1058.4159)" style="fill:#000;fill-opacity:1;stroke:#000;stroke-width:0;stroke-miterlimit:4;stroke-dasharray:none;stroke-opacity:1"/><path style="fill:#000;fill-opacity:1;stroke:#000;stroke-width:0;stroke-miterlimit:4;stroke-dasharray:none;stroke-opacity:1" id="path4175" d="m 71,1040.3621 3,-1.7321 0,3.4641 z" transform="matrix(1.3333251,0,0,2.0207177,-6.666069,-1058.4159)"/><rect id="rect4177" width="1" height="7" x="-125" y="-1047.362" transform="scale(-1,-1)" style="fill:#000;fill-opacity:1;stroke:#000;stroke-width:0;stroke-miterlimit:4;stroke-dasharray:none;stroke-opacity:1"/><path id="path4179" d="m 71,1040.3621 3,-1.7321 0,3.4641 z" transform="matrix(-1.3333251,0,0,-2.0207177,217.66606,3146.1402)" style="fill:#000;fill-opacity:1;stroke:#000;stroke-width:0;stroke-miterlimit:4;stroke-dasharray:none;stroke-opacity:1"/><path style="fill:#000;fill-opacity:1;stroke:#000;stroke-width:0;stroke-miterlimit:4;stroke-dasharray:none;stroke-opacity:1" id="path4181" d="m 71,1040.3621 3,-1.7321 0,3.4641 z" transform="matrix(-1.3333251,0,0,-2.0207177,212.66606,3146.1402)"/><path style="fill:#000;fill-opacity:1;stroke:#000;stroke-width:0;stroke-miterlimit:4;stroke-dasharray:none;stroke-opacity:1" id="path4183" d="m 71,1040.3621 3,-1.7321 0,3.4641 z" transform="matrix(-1.3333251,0,0,-2.0207177,203.66606,3146.1402)"/><path id="path4185" d="m 71,1040.3621 3,-1.7321 0,3.4641 z" transform="matrix(-1.3333251,0,0,-2.0207177,198.66606,3146.1402)" style="fill:#000;fill-opacity:1;stroke:#000;stroke-width:0;stroke-miterlimit:4;stroke-dasharray:none;stroke-opacity:1"/><rect style="fill:#000;fill-opacity:1;stroke:#000;stroke-width:0;stroke-miterlimit:4;stroke-dasharray:none;stroke-opacity:1" id="rect4187" width="2" height="7" x="-150" y="-1047.362" transform="scale(-1,-1)"/><rect style="fill:#000;fill-opacity:1;stroke:#000;stroke-width:0;stroke-miterlimit:4;stroke-dasharray:none;stroke-opacity:1" id="rect4189" width="1" height="7" x="-153" y="-1047.362" transform="scale(-1,-1)"/><path style="fill:#000;fill-opacity:1;stroke:#000;stroke-width:0;stroke-miterlimit:4;stroke-dasharray:none;stroke-opacity:1" id="path4191" d="m 71,1040.3621 3,-1.7321 0,3.4641 z" transform="matrix(-1.3333251,0,0,-2.0207177,251.66606,3146.1402)"/><path id="path4179-5" d="m 71,1040.3621 3,-1.7321 0,3.4641 z" transform="matrix(2.6666533,0,0,4.04144,2.6676424,-3160.1988)" style="fill:#000;fill-opacity:1;stroke:#000;stroke-width:0;stroke-miterlimit:4;stroke-dasharray:none;stroke-opacity:1"/><rect style="fill:#000;fill-opacity:1;stroke:#000;stroke-width:0;stroke-miterlimit:4;stroke-dasharray:none;stroke-opacity:1" id="rect4187-3" width="4" height="6" x="-196" y="-1047.362" transform="scale(-1,-1)"/><rect style="fill:#00f;fill-rule:evenodd;stroke:#000;stroke-width:0;stroke-linecap:butt;stroke-linejoin:miter;stroke-miterlimit:4;stroke-dasharray:none;stroke-opacity:1" id="rect4181" width="16" height="16" x="224" y="1020.362"/><rect style="fill:#f600ff;fill-opacity:1;fill-rule:evenodd;stroke:#000;stroke-width:0;stroke-linecap:butt;stroke-linejoin:miter;stroke-miterlimit:4;stroke-dasharray:none;stroke-opacity:1" id="rect4181-4" width="16" height="16" x="208" y="1020.362"/><rect style="fill:#7200ff;fill-opacity:1;fill-rule:evenodd;stroke:#000;stroke-width:0;stroke-linecap:butt;stroke-linejoin:miter;stroke-miterlimit:4;stroke-dasharray:none;stroke-opacity:1" id="rect4181-4-8" width="16" height="16" x="192" y="1020.362"/><path style="fill:none;fill-opacity:1;stroke:#000;stroke-width:.5;stroke-linejoin:miter;stroke-miterlimit:4;stroke-dasharray:none;stroke-opacity:1" id="path4230" d="m 200.52049,1043.2902 a 1.1333569,1.0653899 0 0 1 1.03457,1.0614 1.1333569,1.0653899 0 0 1 -1.03457,1.0613"/><path style="fill:none;fill-opacity:1;stroke:#000;stroke-width:.60000002;stroke-linejoin:miter;stroke-miterlimit:4;stroke-dasharray:none;stroke-opacity:1" id="path4230-0" d="m 201.52458,1042.2289 a 2.2667139,2.1307797 0 0 1 2.06916,2.1227 2.2667139,2.1307797 0 0 1 -2.06916,2.1226"/><path style="fill:none;fill-opacity:1;stroke:#000;stroke-width:.69999999;stroke-linejoin:miter;stroke-miterlimit:4;stroke-dasharray:none;stroke-opacity:1" id="path4230-0-7" d="m 202.02869,1040.1066 a 4.5334277,4.2615595 0 0 1 4.13831,4.2453 4.5334277,4.2615595 0 0 1 -4.13831,4.2454"/><path style="fill:#000;fill-opacity:1;stroke:#000;stroke-width:0;stroke-miterlimit:4;stroke-dasharray:none;stroke-opacity:1" id="path4262" d="m 71,1040.3621 3,-1.7321 0,3.4641 z" transform="matrix(2.6666533,0,0,4.04144,22.667642,-3160.1988)"/><rect id="rect4264" width="4" height="6" x="-216" y="-1047.362" transform="scale(-1,-1)" style="fill:#000;fill-opacity:1;stroke:#000;stroke-width:0;stroke-miterlimit:4;stroke-dasharray:none;stroke-opacity:1"/><path id="path4266" d="m 71,1040.3621 3,-1.7321 0,3.4641 z" transform="matrix(2.6666533,0,0,4.04144,38.667642,-3160.1988)" style="fill:#000;fill-opacity:1;stroke:#000;stroke-width:0;stroke-miterlimit:4;stroke-dasharray:none;stroke-opacity:1"/><rect style="fill:#000;fill-opacity:1;stroke:#000;stroke-width:0;stroke-miterlimit:4;stroke-dasharray:none;stroke-opacity:1" id="rect4268" width="4" height="6" x="-232" y="-1047.362" transform="scale(-1,-1)"/><path style="fill:none;fill-rule:evenodd;stroke:red;stroke-width:1px;stroke-linecap:butt;stroke-linejoin:miter;stroke-opacity:1" id="path4276" d="m 210,1038.3621 12,12"/></g></svg>